<?xml version="1.0" encoding="UTF-8" standalone="no"?>
<svg
   xmlns:dc="http://purl.org/dc/elements/1.1/"
   xmlns:cc="http://creativecommons.org/ns#"
   xmlns:rdf="http://www.w3.org/1999/02/22-rdf-syntax-ns#"
   xmlns:svg="http://www.w3.org/2000/svg"
   xmlns="http://www.w3.org/2000/svg"
   version="1.1"
   id="svg885"
   width="48"
   height="12"
   viewBox="0 0 48 12">
  <metadata
     id="metadata891">
    <rdf:RDF>
      <cc:Work
         rdf:about="">
        <dc:format>image/svg+xml</dc:format>
        <dc:type
           rdf:resource="http://purl.org/dc/dcmitype/StillImage" />
        <dc:title></dc:title>
      </cc:Work>
    </rdf:RDF>
  </metadata>
  <defs
     id="defs889" />
  <g
     id="g893"
     transform="translate(0.36280676,-18.343417)">
    <path
       style="fill:#000000"
       d="m 1.6371933,28.343417 c -1.10000006,-1.1 -2.00000006,-2.9 -2.00000006,-4 0,-2.575564 3.42443636,-6 6.00000006,-6 2.5755637,0 5.9999997,3.424436 5.9999997,6 0,2.575564 -3.424436,6 -5.9999997,6 -1.1,0 -2.9,-0.9 -4,-2 z m 17.9999997,0 c -1.1,-1.1 -2,-2.9 -2,-4 0,-2.575564 3.424436,-6 6,-6 2.575564,0 6,3.424436 6,6 0,1.1 -0.9,2.9 -2,4 -1.1,1.1 -2.9,2 -4,2 -1.1,0 -2.9,-0.9 -4,-2 z m 18,0 c -1.1,-1.1 -2,-2.9 -2,-4 0,-1.1 0.9,-2.9 2,-4 1.1,-1.1 2.9,-2 4,-2 2.575564,0 6,3.424436 6,6 0,1.1 -0.9,2.9 -2,4 -1.1,1.1 -2.9,2 -4,2 -1.1,0 -2.9,-0.9 -4,-2 z"
       id="path897" />
  </g>
</svg>
